<mxfile host="app.diagrams.net" modified="2021-05-26T08:05:31.909Z" agent="5.0 (X11; Linux x86_64) AppleWebKit/537.36 (KHTML, like Gecko) Chrome/90.0.4430.212 Safari/537.36" etag="tSO9UcIYiaIUr7Yoj66G" version="14.7.1" type="github">
  <diagram id="JyixCe3tqonVRbBKiSpI" name="Page-1">
    <mxGraphModel dx="1350" dy="806" grid="1" gridSize="10" guides="1" tooltips="1" connect="1" arrows="1" fold="1" page="1" pageScale="1" pageWidth="827" pageHeight="1169" math="0" shadow="0">
      <root>
        <mxCell id="0" />
        <mxCell id="1" parent="0" />
        <mxCell id="QKZcqHYON9K9JA0nIHvI-14" style="edgeStyle=orthogonalEdgeStyle;rounded=0;orthogonalLoop=1;jettySize=auto;html=1;entryX=0;entryY=0.5;entryDx=0;entryDy=0;" edge="1" parent="1" source="QKZcqHYON9K9JA0nIHvI-1" target="QKZcqHYON9K9JA0nIHvI-4">
          <mxGeometry relative="1" as="geometry" />
        </mxCell>
        <mxCell id="QKZcqHYON9K9JA0nIHvI-1" value="" style="rounded=0;whiteSpace=wrap;html=1;" vertex="1" parent="1">
          <mxGeometry x="70" y="90" width="20" height="140" as="geometry" />
        </mxCell>
        <mxCell id="QKZcqHYON9K9JA0nIHvI-2" value="" style="rounded=0;whiteSpace=wrap;html=1;" vertex="1" parent="1">
          <mxGeometry x="605" y="250" width="20" height="110" as="geometry" />
        </mxCell>
        <mxCell id="QKZcqHYON9K9JA0nIHvI-15" style="edgeStyle=orthogonalEdgeStyle;rounded=0;orthogonalLoop=1;jettySize=auto;html=1;entryX=0;entryY=0.5;entryDx=0;entryDy=0;" edge="1" parent="1" source="QKZcqHYON9K9JA0nIHvI-3" target="QKZcqHYON9K9JA0nIHvI-2">
          <mxGeometry relative="1" as="geometry" />
        </mxCell>
        <mxCell id="QKZcqHYON9K9JA0nIHvI-3" value="" style="rounded=0;whiteSpace=wrap;html=1;" vertex="1" parent="1">
          <mxGeometry x="120" y="250" width="20" height="110" as="geometry" />
        </mxCell>
        <mxCell id="QKZcqHYON9K9JA0nIHvI-4" value="" style="rounded=0;whiteSpace=wrap;html=1;" vertex="1" parent="1">
          <mxGeometry x="655" y="90" width="20" height="140" as="geometry" />
        </mxCell>
        <mxCell id="QKZcqHYON9K9JA0nIHvI-6" value="" style="rounded=0;whiteSpace=wrap;html=1;" vertex="1" parent="1">
          <mxGeometry x="545" y="380" width="20" height="80" as="geometry" />
        </mxCell>
        <mxCell id="QKZcqHYON9K9JA0nIHvI-17" style="edgeStyle=orthogonalEdgeStyle;rounded=0;orthogonalLoop=1;jettySize=auto;html=1;" edge="1" parent="1" source="QKZcqHYON9K9JA0nIHvI-7" target="QKZcqHYON9K9JA0nIHvI-6">
          <mxGeometry relative="1" as="geometry" />
        </mxCell>
        <mxCell id="QKZcqHYON9K9JA0nIHvI-7" value="" style="rounded=0;whiteSpace=wrap;html=1;" vertex="1" parent="1">
          <mxGeometry x="180" y="380" width="20" height="80" as="geometry" />
        </mxCell>
        <mxCell id="QKZcqHYON9K9JA0nIHvI-18" style="edgeStyle=orthogonalEdgeStyle;rounded=0;orthogonalLoop=1;jettySize=auto;html=1;exitX=1;exitY=0.5;exitDx=0;exitDy=0;entryX=0;entryY=0.5;entryDx=0;entryDy=0;" edge="1" parent="1" source="QKZcqHYON9K9JA0nIHvI-8" target="QKZcqHYON9K9JA0nIHvI-9">
          <mxGeometry relative="1" as="geometry" />
        </mxCell>
        <mxCell id="QKZcqHYON9K9JA0nIHvI-8" value="" style="rounded=0;whiteSpace=wrap;html=1;" vertex="1" parent="1">
          <mxGeometry x="235" y="469" width="20" height="60" as="geometry" />
        </mxCell>
        <mxCell id="QKZcqHYON9K9JA0nIHvI-9" value="" style="rounded=0;whiteSpace=wrap;html=1;" vertex="1" parent="1">
          <mxGeometry x="490" y="469" width="20" height="60" as="geometry" />
        </mxCell>
        <mxCell id="QKZcqHYON9K9JA0nIHvI-11" value="" style="rounded=0;whiteSpace=wrap;html=1;" vertex="1" parent="1">
          <mxGeometry x="300" y="550" width="140" height="30" as="geometry" />
        </mxCell>
        <mxCell id="QKZcqHYON9K9JA0nIHvI-21" value="" style="endArrow=classic;html=1;" edge="1" parent="1">
          <mxGeometry width="50" height="50" relative="1" as="geometry">
            <mxPoint x="80" y="230" as="sourcePoint" />
            <mxPoint x="130" y="250" as="targetPoint" />
          </mxGeometry>
        </mxCell>
        <mxCell id="QKZcqHYON9K9JA0nIHvI-22" value="" style="endArrow=classic;html=1;exitX=1;exitY=0.5;exitDx=0;exitDy=0;entryX=0.5;entryY=1;entryDx=0;entryDy=0;" edge="1" parent="1" source="QKZcqHYON9K9JA0nIHvI-11" target="QKZcqHYON9K9JA0nIHvI-9">
          <mxGeometry width="50" height="50" relative="1" as="geometry">
            <mxPoint x="510" y="590" as="sourcePoint" />
            <mxPoint x="560" y="610" as="targetPoint" />
          </mxGeometry>
        </mxCell>
        <mxCell id="QKZcqHYON9K9JA0nIHvI-23" value="" style="endArrow=classic;html=1;exitX=0.5;exitY=1;exitDx=0;exitDy=0;entryX=0;entryY=0.5;entryDx=0;entryDy=0;" edge="1" parent="1" source="QKZcqHYON9K9JA0nIHvI-8" target="QKZcqHYON9K9JA0nIHvI-11">
          <mxGeometry width="50" height="50" relative="1" as="geometry">
            <mxPoint x="110" y="270" as="sourcePoint" />
            <mxPoint x="150" y="270" as="targetPoint" />
          </mxGeometry>
        </mxCell>
        <mxCell id="QKZcqHYON9K9JA0nIHvI-24" value="" style="endArrow=classic;html=1;exitX=0.5;exitY=1;exitDx=0;exitDy=0;entryX=0.25;entryY=0;entryDx=0;entryDy=0;" edge="1" parent="1" source="QKZcqHYON9K9JA0nIHvI-7" target="QKZcqHYON9K9JA0nIHvI-8">
          <mxGeometry width="50" height="50" relative="1" as="geometry">
            <mxPoint x="185" y="469" as="sourcePoint" />
            <mxPoint x="235" y="489" as="targetPoint" />
          </mxGeometry>
        </mxCell>
        <mxCell id="QKZcqHYON9K9JA0nIHvI-25" value="" style="endArrow=classic;html=1;exitX=0.5;exitY=1;exitDx=0;exitDy=0;entryX=0.5;entryY=0;entryDx=0;entryDy=0;" edge="1" parent="1" source="QKZcqHYON9K9JA0nIHvI-3" target="QKZcqHYON9K9JA0nIHvI-7">
          <mxGeometry width="50" height="50" relative="1" as="geometry">
            <mxPoint x="120" y="270" as="sourcePoint" />
            <mxPoint x="170" y="290" as="targetPoint" />
          </mxGeometry>
        </mxCell>
        <mxCell id="QKZcqHYON9K9JA0nIHvI-26" value="" style="endArrow=classic;html=1;exitX=0.5;exitY=0;exitDx=0;exitDy=0;entryX=0.5;entryY=1;entryDx=0;entryDy=0;" edge="1" parent="1" source="QKZcqHYON9K9JA0nIHvI-2" target="QKZcqHYON9K9JA0nIHvI-4">
          <mxGeometry width="50" height="50" relative="1" as="geometry">
            <mxPoint x="455" y="575" as="sourcePoint" />
            <mxPoint x="510" y="539" as="targetPoint" />
          </mxGeometry>
        </mxCell>
        <mxCell id="QKZcqHYON9K9JA0nIHvI-27" value="" style="endArrow=classic;html=1;entryX=0.5;entryY=1;entryDx=0;entryDy=0;" edge="1" parent="1" target="QKZcqHYON9K9JA0nIHvI-2">
          <mxGeometry width="50" height="50" relative="1" as="geometry">
            <mxPoint x="555" y="380" as="sourcePoint" />
            <mxPoint x="520" y="549" as="targetPoint" />
          </mxGeometry>
        </mxCell>
        <mxCell id="QKZcqHYON9K9JA0nIHvI-28" value="" style="endArrow=classic;html=1;exitX=0.25;exitY=0;exitDx=0;exitDy=0;entryX=0.5;entryY=1;entryDx=0;entryDy=0;" edge="1" parent="1" source="QKZcqHYON9K9JA0nIHvI-9" target="QKZcqHYON9K9JA0nIHvI-6">
          <mxGeometry width="50" height="50" relative="1" as="geometry">
            <mxPoint x="475" y="595" as="sourcePoint" />
            <mxPoint x="530" y="559" as="targetPoint" />
          </mxGeometry>
        </mxCell>
        <mxCell id="QKZcqHYON9K9JA0nIHvI-33" value="" style="curved=1;endArrow=classic;html=1;exitX=0;exitY=0.5;exitDx=0;exitDy=0;entryX=1;entryY=0.5;entryDx=0;entryDy=0;" edge="1" parent="1" source="QKZcqHYON9K9JA0nIHvI-1" target="QKZcqHYON9K9JA0nIHvI-1">
          <mxGeometry width="50" height="50" relative="1" as="geometry">
            <mxPoint x="390" y="440" as="sourcePoint" />
            <mxPoint x="440" y="390" as="targetPoint" />
            <Array as="points">
              <mxPoint x="40" y="50" />
              <mxPoint x="120" y="50" />
            </Array>
          </mxGeometry>
        </mxCell>
        <mxCell id="QKZcqHYON9K9JA0nIHvI-34" value="" style="curved=1;endArrow=classic;html=1;exitX=0;exitY=0.5;exitDx=0;exitDy=0;entryX=1;entryY=0.5;entryDx=0;entryDy=0;" edge="1" parent="1">
          <mxGeometry width="50" height="50" relative="1" as="geometry">
            <mxPoint x="120" y="310" as="sourcePoint" />
            <mxPoint x="140" y="310" as="targetPoint" />
            <Array as="points">
              <mxPoint x="100" y="220" />
              <mxPoint x="160" y="220" />
            </Array>
          </mxGeometry>
        </mxCell>
        <mxCell id="QKZcqHYON9K9JA0nIHvI-35" value="" style="curved=1;endArrow=classic;html=1;exitX=0;exitY=0.5;exitDx=0;exitDy=0;entryX=1;entryY=0.5;entryDx=0;entryDy=0;" edge="1" parent="1">
          <mxGeometry width="50" height="50" relative="1" as="geometry">
            <mxPoint x="180" y="420" as="sourcePoint" />
            <mxPoint x="200" y="420" as="targetPoint" />
            <Array as="points">
              <mxPoint x="160" y="360" />
              <mxPoint x="220" y="360" />
            </Array>
          </mxGeometry>
        </mxCell>
        <mxCell id="QKZcqHYON9K9JA0nIHvI-36" value="" style="curved=1;endArrow=classic;html=1;exitX=0;exitY=0.5;exitDx=0;exitDy=0;entryX=1;entryY=0.5;entryDx=0;entryDy=0;" edge="1" parent="1">
          <mxGeometry width="50" height="50" relative="1" as="geometry">
            <mxPoint x="235" y="500" as="sourcePoint" />
            <mxPoint x="255" y="500" as="targetPoint" />
            <Array as="points">
              <mxPoint x="220" y="450" />
              <mxPoint x="270" y="450" />
            </Array>
          </mxGeometry>
        </mxCell>
        <mxCell id="QKZcqHYON9K9JA0nIHvI-37" value="" style="curved=1;endArrow=classic;html=1;exitX=0;exitY=0.5;exitDx=0;exitDy=0;entryX=1;entryY=0.5;entryDx=0;entryDy=0;" edge="1" parent="1" target="QKZcqHYON9K9JA0nIHvI-11">
          <mxGeometry width="50" height="50" relative="1" as="geometry">
            <mxPoint x="300" y="570" as="sourcePoint" />
            <mxPoint x="320" y="570" as="targetPoint" />
            <Array as="points">
              <mxPoint x="340" y="520" />
              <mxPoint x="390" y="510" />
            </Array>
          </mxGeometry>
        </mxCell>
        <mxCell id="QKZcqHYON9K9JA0nIHvI-38" value="" style="curved=1;endArrow=classic;html=1;exitX=0;exitY=0.5;exitDx=0;exitDy=0;entryX=1;entryY=0.5;entryDx=0;entryDy=0;" edge="1" parent="1">
          <mxGeometry width="50" height="50" relative="1" as="geometry">
            <mxPoint x="655" y="160" as="sourcePoint" />
            <mxPoint x="675" y="160" as="targetPoint" />
            <Array as="points">
              <mxPoint x="625" y="50" />
              <mxPoint x="705" y="50" />
            </Array>
          </mxGeometry>
        </mxCell>
        <mxCell id="QKZcqHYON9K9JA0nIHvI-39" value="" style="curved=1;endArrow=classic;html=1;exitX=0;exitY=0.5;exitDx=0;exitDy=0;entryX=1;entryY=0.5;entryDx=0;entryDy=0;" edge="1" parent="1">
          <mxGeometry width="50" height="50" relative="1" as="geometry">
            <mxPoint x="605" y="310" as="sourcePoint" />
            <mxPoint x="625" y="310" as="targetPoint" />
            <Array as="points">
              <mxPoint x="585" y="220" />
              <mxPoint x="645" y="220" />
            </Array>
          </mxGeometry>
        </mxCell>
        <mxCell id="QKZcqHYON9K9JA0nIHvI-40" value="" style="curved=1;endArrow=classic;html=1;exitX=0;exitY=0.5;exitDx=0;exitDy=0;entryX=1;entryY=0.5;entryDx=0;entryDy=0;" edge="1" parent="1">
          <mxGeometry width="50" height="50" relative="1" as="geometry">
            <mxPoint x="545" y="420" as="sourcePoint" />
            <mxPoint x="565" y="420" as="targetPoint" />
            <Array as="points">
              <mxPoint x="525" y="360" />
              <mxPoint x="585" y="360" />
            </Array>
          </mxGeometry>
        </mxCell>
        <mxCell id="QKZcqHYON9K9JA0nIHvI-43" value="" style="curved=1;endArrow=classic;html=1;exitX=0;exitY=0.5;exitDx=0;exitDy=0;entryX=1;entryY=0.5;entryDx=0;entryDy=0;" edge="1" parent="1">
          <mxGeometry width="50" height="50" relative="1" as="geometry">
            <mxPoint x="490" y="500" as="sourcePoint" />
            <mxPoint x="510" y="500" as="targetPoint" />
            <Array as="points">
              <mxPoint x="475" y="450" />
              <mxPoint x="525" y="450" />
            </Array>
          </mxGeometry>
        </mxCell>
      </root>
    </mxGraphModel>
  </diagram>
</mxfile>
